<?xml version="1.0" encoding="UTF-8"?>
<svg version="1.1" xmlns="http://www.w3.org/2000/svg" width="512" height="512">
<path d="M0 0 C85.47 0 170.94 0 259 0 C259 27.06 259 54.12 259 82 C203.89 82 148.78 82 92 82 C92 124.57 92 167.14 92 211 C135.89 211 179.78 211 225 211 C225 238.39 225 265.78 225 294 C181.11 294 137.22 294 92 294 C92 336.57 92 379.14 92 423 C147.11 423 202.22 423 259 423 C259 451.71 259 480.42 259 510 C173.53 510 88.06 510 0 510 C0 341.7 0 173.4 0 0 Z " fill="#FFA500" transform="translate(127,1)"/>
</svg>
